<?xml version="1.0" encoding="UTF-8"?> <svg xmlns="http://www.w3.org/2000/svg" xmlns:xlink="http://www.w3.org/1999/xlink" width="160" height="32" viewBox="0 0 160 32"> <title>logo-default</title> <desc>Created using Figma</desc> <g id="Canvas" transform="matrix(0.5 0 0 0.5 -128 -330)"> <clipPath id="clip-0" clip-rule="evenodd"> <path d="M 256 660L 575.618 660L 575.618 724L 256 724L 256 660Z" fill="#FFFFFF"></path> </clipPath> <g id="logo-default" clip-path="url(#clip-0)"> <g id="Group"> <g id="Vector"> <use xlink:href="#path0_fill" transform="translate(355.518 671.972)" fill="#212121"></use> </g> <g id="Vector"> <use xlink:href="#path1_fill" transform="translate(355.518 703.818)" fill="#212121"></use> </g> <g id="Group"> <g id="Vector"> <use xlink:href="#path2_fill" transform="translate(567.657 664.011)" fill="#212121"></use> </g> </g> </g> <g id="logo-sticky"> <use xlink:href="#path3_fill" transform="translate(256 660)" fill="#CEA957"></use> </g> </g> </g> <defs> <path id="path0_fill" d="M 205.421 1.07811L 205.421 20.4841L 212.139 20.4841L 212.139 22.972L 202.602 22.972L 202.602 1.07811L 205.421 1.07811ZM 185.269 1.07811L 185.269 20.4841L 191.986 20.4841L 191.986 22.972L 182.449 22.972L 182.449 1.07811L 185.269 1.07811ZM 165.2 15.0106L 161.219 6.13693L 157.238 15.0106L 165.2 15.0106ZM 166.278 17.4985L 156.077 17.4985L 153.506 22.972L 150.521 22.972L 161.219 0.0829315L 171.834 22.972L 168.849 22.972L 166.278 17.4985ZM 117.348 1.07811L 123.568 16.7522L 129.871 0.580519L 136.174 16.7522L 142.393 1.07811L 145.379 1.07811L 136.174 23.8843L 129.871 7.79556L 123.568 23.8843L 114.363 1.07811L 117.348 1.07811ZM 102.42 15.0106L 98.4397 6.13693L 94.5419 15.0106L 102.42 15.0106ZM 103.581 17.4985L 93.3809 17.4985L 90.81 22.972L 87.9074 22.972L 98.5226 0.0829315L 109.138 22.972L 106.152 22.972L 103.581 17.4985ZM 66.511 10.5323L 75.9652 0.995177L 79.6142 0.995177L 69.6625 10.864L 79.7801 22.972L 76.0482 22.972L 67.6721 12.7715L 66.594 13.8496L 66.594 22.972L 63.8572 22.972L 63.8572 1.07811L 66.594 1.07811L 66.594 10.5323L 66.511 10.5323ZM 31.5969 22.972L 31.5969 1.26543e-06L 48.2661 17.2497L 48.2661 1.07811L 51.0029 1.07811L 51.0029 23.8843L 34.3336 6.63452L 34.3336 22.972L 31.5969 22.972ZM 14.513 15.0106L 10.5323 6.13693L 6.63452 15.0106L 14.513 15.0106ZM 15.674 17.4985L 5.47348 17.4985L 2.9026 22.972L 0 22.972L 10.5323 0.0829315L 21.1475 22.972L 18.162 22.972L 15.674 17.4985Z"></path> <path id="path1_fill" d="M 148.945 5.30761C 148.945 5.72227 149.111 6.054 149.277 6.38572C 149.608 6.88331 150.272 7.13211 151.184 7.13211C 151.599 7.13211 151.93 7.04917 152.262 6.96624C 152.926 6.71745 153.174 6.38573 153.174 5.80521C 153.174 5.39055 153.009 5.14175 152.76 4.89296C 152.511 4.72709 152.096 4.56123 151.516 4.4783L 150.438 4.22951C 149.774 4.06364 149.277 3.89778 148.945 3.73192C 148.447 3.40019 148.199 2.98553 148.199 2.32208C 148.199 1.65863 148.447 1.07811 148.945 0.663451C 149.443 0.248793 150.106 2.53087e-06 151.018 2.53087e-06C 151.848 2.53087e-06 152.511 0.165863 153.092 0.58052C 153.672 0.995178 153.921 1.5757 153.921 2.40501L 152.926 2.40501C 152.843 1.99035 152.76 1.65863 152.594 1.49277C 152.262 1.07811 151.682 0.912248 150.935 0.912248C 150.272 0.912248 149.857 1.07811 149.608 1.32691C 149.36 1.5757 149.194 1.90742 149.194 2.23915C 149.194 2.57088 149.36 2.9026 149.691 3.06846C 149.94 3.1514 150.355 3.31726 151.101 3.48312L 152.179 3.73192C 152.677 3.81485 153.092 3.98071 153.423 4.22951C 153.921 4.56123 154.17 5.05882 154.17 5.72227C 154.17 6.55158 153.838 7.13211 153.257 7.54677C 152.594 7.87849 151.848 8.04435 151.018 8.04435C 150.023 8.04435 149.277 7.79556 148.696 7.29797C 148.116 6.80038 147.867 6.13693 147.867 5.39055L 148.945 5.39055L 148.945 5.30761ZM 140.071 0.49759C 140.818 0.912248 141.315 1.5757 141.481 2.57088L 140.403 2.57088C 140.237 1.99036 139.988 1.65863 139.574 1.32691C 139.159 1.07811 138.661 0.912248 138.081 0.912248C 137.335 0.912248 136.754 1.16104 136.256 1.65863C 135.759 2.15622 135.51 2.98553 135.51 3.98071C 135.51 4.89296 135.676 5.63934 136.091 6.13693C 136.505 6.71745 137.169 6.96624 138.081 6.96624C 138.827 6.96624 139.408 6.80038 139.822 6.38572C 140.32 5.97107 140.486 5.39054 140.569 4.4783L 138.081 4.4783L 138.081 3.64898L 141.564 3.64898L 141.564 7.71263L 140.984 7.71263L 140.735 6.71745C 140.403 7.13211 140.071 7.3809 139.74 7.54677C 139.242 7.79556 138.661 7.96142 137.998 7.96142C 137.086 7.96142 136.256 7.71263 135.593 7.13211C 134.847 6.38573 134.515 5.39055 134.515 4.14658C 134.515 2.9026 134.847 1.90742 135.593 1.16104C 136.256 0.414655 137.169 0.0829328 138.247 0.0829328C 138.91 0.0829328 139.491 0.165864 140.071 0.49759ZM 121.826 0.248793L 123.07 0.248793L 127.051 6.38572L 127.051 0.248793L 128.046 0.248793L 128.046 7.79556L 126.885 7.79556L 122.822 1.65863L 122.822 7.79556L 121.826 7.79556L 121.826 0.248793ZM 114.114 0.248793L 115.192 0.248793L 115.192 7.79556L 114.114 7.79556L 114.114 0.248793ZM 101.093 0.248793L 104.742 0.248793C 105.323 0.248793 105.821 0.331727 106.235 0.49759C 106.982 0.829316 107.313 1.40984 107.313 2.23915C 107.313 2.65381 107.23 3.06847 106.982 3.31726C 106.816 3.56606 106.484 3.81485 106.152 3.98071C 106.484 4.06364 106.65 4.2295 106.816 4.4783C 106.982 4.72709 107.065 4.97589 107.065 5.39055L 107.065 6.38572C 107.065 6.63452 107.065 6.88332 107.147 7.04918C 107.23 7.29797 107.313 7.46384 107.479 7.54677L 107.479 7.71263L 106.152 7.71263C 106.152 7.6297 106.069 7.54677 106.069 7.46384C 106.069 7.3809 106.069 7.13211 105.986 6.88331L 105.904 5.63934C 105.904 5.14175 105.655 4.81003 105.323 4.64416C 105.157 4.56123 104.825 4.4783 104.328 4.4783L 101.923 4.4783L 101.923 7.71263L 100.845 7.71263L 100.845 0.248793L 101.093 0.248793ZM 104.577 3.73192C 105.074 3.73192 105.489 3.64899 105.738 3.48312C 106.069 3.31726 106.152 2.98554 106.152 2.48795C 106.152 1.99036 105.986 1.5757 105.572 1.40984C 105.323 1.3269 105.074 1.24397 104.66 1.24397L 102.089 1.24397L 102.089 3.81485L 104.577 3.81485L 104.577 3.73192ZM 88.7367 0.248793L 94.459 0.248793L 94.459 1.16104L 89.7319 1.16104L 89.7319 3.48312L 94.0443 3.48312L 94.0443 4.39537L 89.7319 4.39537L 89.7319 6.96624L 94.5419 6.96624L 94.5419 7.87849L 88.7367 7.87849L 88.7367 0.248793ZM 76.9604 0.248793L 79.1996 6.63452L 81.4387 0.248793L 82.5998 0.248793L 79.6972 7.79556L 78.5361 7.79556L 75.6335 0.248793L 76.9604 0.248793ZM 68.4185 6.13693C 68.8331 5.47348 69.0819 4.72709 69.0819 3.89778C 69.0819 2.98553 68.8331 2.32208 68.3355 1.74156C 67.838 1.16104 67.1745 0.912248 66.3452 0.912248C 65.5159 0.912248 64.8524 1.16104 64.3548 1.74156C 63.8573 2.23915 63.6084 3.06847 63.6084 4.14658C 63.6084 4.97589 63.8572 5.72227 64.2719 6.21986C 64.6866 6.80038 65.433 7.04918 66.4281 7.04918C 67.2574 7.04918 68.0038 6.80038 68.4185 6.13693ZM 69.3307 1.32691C 69.8283 1.99036 70.0771 2.81967 70.0771 3.89778C 70.0771 5.05882 69.7454 5.97107 69.1649 6.71745C 68.5014 7.6297 67.5062 8.04435 66.1793 8.04435C 64.9354 8.04435 64.0231 7.6297 63.3597 6.88331C 62.7791 6.13693 62.4474 5.22468 62.4474 4.06364C 62.4474 3.06846 62.6962 2.15622 63.2767 1.40984C 63.9402 0.497589 64.9353 2.53087e-06 66.2623 2.53087e-06C 67.6721 2.53087e-06 68.6673 0.49759 69.3307 1.32691ZM 55.5641 0.829317C 56.1446 1.32691 56.3934 1.90743 56.4763 2.57088L 55.3982 2.57088C 55.3153 2.07329 55.0665 1.74156 54.7348 1.40984C 54.4031 1.07811 53.9055 0.995178 53.242 0.995178C 52.4956 0.995178 51.8322 1.24397 51.3346 1.74156C 50.837 2.23915 50.5882 3.06847 50.5882 4.14658C 50.5882 5.05882 50.837 5.72227 51.2517 6.30279C 51.6663 6.88331 52.3298 7.13211 53.1591 7.13211C 53.9055 7.13211 54.5689 6.88331 54.9836 6.30279C 55.2324 5.97107 55.3982 5.63934 55.4812 5.14175L 56.5593 5.14175C 56.4763 5.97107 56.1446 6.63452 55.647 7.13211C 54.9836 7.79556 54.1543 8.12728 53.1591 8.12728C 52.2468 8.12728 51.5005 7.87849 50.837 7.29797C 50.0077 6.63452 49.593 5.47348 49.593 4.06364C 49.593 2.98553 49.9248 2.07329 50.5053 1.32691C 51.1687 0.580522 52.081 0.165863 53.242 0.165863C 54.2372 0 55.0665 0.248797 55.5641 0.829317ZM 38.8949 0.248793L 39.973 0.248793L 39.973 6.88331L 43.9537 6.88331L 43.9537 7.79556L 38.8949 7.79556L 38.8949 0.248793ZM 27.782 0.248793L 28.8602 0.248793L 28.8602 6.88331L 32.8409 6.88331L 32.8409 7.79556L 27.782 7.79556L 27.782 0.248793ZM 17.8303 0.248793L 19.0742 0.248793L 21.8939 7.79556L 20.7329 7.79556L 19.9036 5.55641L 16.8351 5.55641L 16.0058 7.79556L 14.9277 7.79556L 17.8303 0.248793ZM 19.5718 4.72709L 18.4108 1.40984L 17.1668 4.72709L 19.5718 4.72709ZM 1.16104 0.248793L 2.65381 6.38572L 4.39537 0.248793L 5.55641 0.248793L 7.29797 6.38572L 8.79074 0.248793L 9.95178 0.248793L 7.87849 7.79556L 6.80038 7.79556L 4.97589 1.5757L 3.1514 7.79556L 2.07329 7.79556L -2.35705e-14 0.248793L 1.16104 0.248793Z"></path> <path id="path2_fill" d="M 6.80038 6.80038C 6.054 7.54677 5.05883 7.96142 3.98072 7.96142C 2.90261 7.96142 1.90743 7.54677 1.16105 6.80038C 0.414668 6.054 -1.01235e-05 5.05882 -1.01235e-05 3.98071C -1.01235e-05 2.9026 0.414668 1.99036 1.16105 1.16104C 1.90743 0.414658 2.90261 -6.32717e-07 3.98072 -6.32717e-07C 5.05883 -6.32717e-07 6.054 0.414658 6.80038 1.16104C 7.54677 1.90742 7.96142 2.9026 7.96142 3.98071C 7.96142 5.05882 7.6297 6.054 6.80038 6.80038ZM 1.57571 1.5757C 0.912257 2.23915 0.58052 3.06846 0.58052 3.98071C 0.58052 4.97589 0.912257 5.72227 1.57571 6.38572C 2.23916 7.04918 3.06847 7.3809 3.98072 7.3809C 4.89296 7.3809 5.72227 7.04918 6.38573 6.38572C 7.04918 5.72227 7.38091 4.89296 7.38091 3.98071C 7.38091 3.06846 7.04918 2.23915 6.38573 1.5757C 5.72227 0.912247 4.89296 0.58052 3.98072 0.58052C 3.06847 0.58052 2.23916 0.912247 1.57571 1.5757ZM 3.89778 1.74156C 4.4783 1.74156 4.81002 1.82449 5.05882 1.90742C 5.47347 2.07329 5.72228 2.48795 5.72228 2.98553C 5.72228 3.40019 5.55642 3.64899 5.30763 3.81485C 5.14176 3.89778 4.97588 3.98071 4.64416 4.06364C 4.97588 4.14657 5.22467 4.22951 5.39054 4.4783C 5.5564 4.7271 5.63935 4.97589 5.63935 5.14175L 5.63935 5.55641C 5.63935 5.63934 5.63935 5.80521 5.63935 5.88814C 5.63935 5.97107 5.63935 6.054 5.63935 6.13693L 5.63935 6.21986L 4.89297 6.21986C 4.89297 6.21986 4.89297 6.21986 4.89297 6.13693C 4.89297 6.13693 4.89297 6.13693 4.89297 6.054L 4.89297 5.88814L 4.89297 5.55641C 4.89297 5.05882 4.72711 4.72709 4.47831 4.56123C 4.31245 4.4783 4.06365 4.39537 3.649 4.39537L 3.06847 4.39537L 3.06847 6.13693L 2.32209 6.13693L 2.32209 1.74156L 3.89778 1.74156ZM 4.7271 2.48794C 4.56123 2.40501 4.2295 2.32208 3.81484 2.32208L 3.1514 2.32208L 3.1514 3.89778L 3.81484 3.89778C 4.14657 3.89778 4.39536 3.89778 4.56122 3.81485C 4.89295 3.73192 4.97588 3.48312 4.97588 3.1514C 5.05881 2.81967 4.97589 2.57088 4.7271 2.48794Z"></path> <path id="path3_fill" d="M 65.6817 32.2073L 66.0964 31.6268C 66.3452 31.2951 66.3452 30.9634 66.3452 30.5487C 66.3452 30.134 66.0964 29.8023 65.6817 29.4706C 65.2671 29.2218 64.8524 29.1389 64.4378 29.3047C 64.2719 29.3877 64.0231 29.4706 63.7743 29.5535L 59.5448 23.5825L 59.6277 15.7869C 59.9595 15.8698 60.2083 15.8698 60.4571 15.704C 61.0376 15.2893 61.2864 14.5429 61.0376 13.8795C 60.8717 13.5477 60.6229 13.299 60.2912 13.216L 59.7107 13.0502L 59.7107 12.3038C 59.7107 11.8891 59.5448 11.5574 59.296 11.3086C 59.0472 10.9769 58.6326 10.811 58.135 10.811C 57.6374 10.811 57.3057 10.9769 57.0569 11.3915C 56.9739 11.5574 56.8081 11.7233 56.6422 11.972L 49.676 9.64996L 45.1147 3.26424C 45.3635 3.18131 45.6123 3.01544 45.7782 2.76665C 46.027 2.1032 45.7782 1.35682 45.1977 1.02509C 44.8659 0.859227 44.5342 0.776294 44.2025 0.942157L 43.539 1.27388L 43.1244 0.610433C 42.8756 0.278707 42.5438 0.112843 42.2121 0.0299117C 41.8804 -0.0530198 41.3828 0.029913 41.0511 0.361639C 40.6364 0.610433 40.4706 1.02509 40.5535 1.43975C 40.5535 1.60561 40.5535 1.8544 40.5535 2.18613L 33.5872 4.34235L 26.2063 1.85441C 26.3722 1.60561 26.4551 1.35681 26.4551 1.10802C 26.2893 0.444568 25.6258 -0.0530198 24.8794 0.0299117C 24.5477 0.112843 24.216 0.278705 23.9672 0.527499L 23.6355 1.02509L 22.8891 0.776296C 22.5574 0.693365 22.1427 0.776295 21.811 0.859227C 21.4793 1.02509 21.1475 1.35681 20.9817 1.77147C 20.8158 2.18613 20.8987 2.60079 21.2305 2.93251C 21.3134 3.09838 21.4793 3.26424 21.6451 3.51303L 17.2497 9.40117L 9.78591 11.7233C 9.78591 11.3915 9.70298 11.1427 9.45419 10.9769C 8.87367 10.4793 8.12728 10.4793 7.54676 10.9769C 7.29797 11.2257 7.13211 11.5574 7.13211 11.8891L 7.13211 12.4696L 6.38572 12.8843C 6.054 12.9672 5.8052 13.299 5.55641 13.6307C 5.30762 13.9624 5.30761 14.46 5.47348 14.8746C 5.63934 15.2893 5.97107 15.621 6.38572 15.704C 6.55159 15.7869 6.80038 15.8698 7.04918 15.9528L 6.96625 23.2507L 2.32208 29.4706C 2.15622 29.2218 1.90742 29.0559 1.65863 29.0559C 0.912246 29.0559 0.248795 29.4706 0.165864 30.217C 0.0829321 30.5487 0.165864 30.8804 0.331727 31.2122L 0.663451 31.7097L 0.248794 32.2903C -6.42603e-07 32.622 -5.89264e-15 32.9537 -5.89264e-15 33.3684C -5.89264e-15 33.783 0.248794 34.1148 0.663451 34.4465C 1.07811 34.6953 1.49277 34.7782 1.90742 34.6123C 2.07329 34.5294 2.32208 34.4465 2.57087 34.3635L 6.80038 40.3346L 6.71745 48.1302C 6.38572 48.0472 6.13693 48.0472 5.88813 48.2131C 5.30761 48.6278 5.05882 49.3741 5.30762 50.0376C 5.47348 50.3693 5.72227 50.6181 6.054 50.701L 6.63452 50.8669L 6.63452 51.6133C 6.63452 52.028 6.80038 52.3597 7.04918 52.6085C 7.29797 52.9402 7.71263 53.1061 8.21022 53.1061C 8.70781 53.1061 9.03953 52.9402 9.28833 52.5255C 9.37126 52.3597 9.53712 52.1938 9.70298 51.945L 16.6692 54.2671L 21.2305 60.6528C 20.9817 60.7358 20.7329 60.9016 20.567 61.1504C 20.3182 61.8139 20.567 62.5603 21.1475 62.892C 21.4793 63.0578 21.811 63.1408 22.1427 62.9749L 22.7232 62.809L 23.1379 63.3896C 23.3867 63.7213 23.7184 63.8872 24.0501 63.9701C 24.3819 64.053 24.8794 63.9701 25.2112 63.6384C 25.6258 63.3896 25.7917 62.9749 25.7088 62.5603C 25.7088 62.3944 25.7088 62.1456 25.7088 61.8139L 32.675 59.6577L 40.0559 62.1456C 39.89 62.3944 39.8071 62.6432 39.8071 62.892C 39.973 63.5554 40.6364 64.053 41.3828 63.9701C 41.7145 63.8872 42.0463 63.7213 42.2951 63.4725L 42.6268 62.9749L 43.3732 63.2237C 43.7049 63.3066 44.1195 63.2237 44.4513 63.1408C 44.783 62.9749 45.1147 62.6432 45.2806 62.2285C 45.4464 61.8139 45.3635 61.3992 45.0318 61.0675C 44.9489 60.9016 44.783 60.7358 44.6171 60.487L 49.0125 54.5988L 56.4763 52.2767C 56.4763 52.6085 56.5593 52.8573 56.8081 53.0231C 57.3886 53.5207 58.135 53.5207 58.7155 53.0231C 58.9643 52.7743 59.1301 52.4426 59.1301 52.1109L 59.1301 51.5304L 59.8765 51.2816C 60.2083 51.1986 60.457 50.8669 60.7058 50.5352C 60.9546 50.2035 60.9546 49.7059 60.7888 49.2912C 60.6229 48.8766 60.2912 48.5448 59.8765 48.4619C 59.7107 48.379 59.4619 48.296 59.2131 48.2131L 59.296 40.9151L 63.9402 34.6953C 64.106 34.9441 64.3548 35.1099 64.6036 35.1099C 65.35 35.1099 66.0135 34.6953 66.0964 33.9489C 66.1793 33.6172 66.0964 33.2854 65.9305 32.9537L 65.6817 32.2073ZM 6.88331 35.7734L 5.22468 33.3684C 5.72227 33.2025 6.30279 33.0366 6.96625 32.7878L 6.88331 35.7734ZM 6.96625 29.8023L 4.81003 30.4658L 6.96625 27.5632L 6.96625 29.8023ZM 54.9836 14.2941C 54.6518 14.7088 54.3201 15.2064 53.9055 15.704L 52.2468 13.299L 54.9836 14.2941ZM 52.2468 17.9431L 51.4175 19.0212L 46.6904 25.324L 46.4416 25.6557L 43.2073 24.5776L 43.2073 21.0945L 43.2073 18.109L 43.2073 10.3963L 47.9344 11.972L 52.2468 17.9431ZM 43.7878 34.3635C 44.1195 34.7782 44.3683 35.1929 44.7001 35.6075C 44.2025 35.7734 43.7049 35.9392 43.2073 36.1051L 43.2073 35.1929L 43.7878 34.3635ZM 43.2902 28.6413L 43.2902 27.6461C 43.7878 27.812 44.2854 27.9778 44.783 28.1437C 44.4513 28.5583 44.2025 28.973 43.8708 29.3877L 43.2902 28.6413ZM 45.4465 8.40599L 43.2902 7.65961L 43.2902 5.42046L 45.4465 8.40599ZM 40.3047 41.6615C 39.8071 41.4957 39.3095 41.3298 38.8119 41.1639L 39.3925 40.4175L 40.3047 40.0858C 40.3047 40.6663 40.3047 41.1639 40.3047 41.6615ZM 40.3047 23.6654L 39.3925 23.3337L 38.8119 22.5043C 39.3095 22.3385 39.8071 22.1726 40.3047 22.0068C 40.3047 22.6702 40.3047 23.1678 40.3047 23.6654ZM 40.4706 4.92287C 40.4706 5.50339 40.4706 6.08391 40.4706 6.74736L 37.7338 5.83512L 40.4706 4.92287ZM 40.3876 9.40117C 40.3876 9.81583 40.3876 10.3134 40.3876 10.811C 40.3876 13.216 40.3876 15.7869 40.3047 18.6895C 40.3047 18.8554 40.3047 18.9383 40.3047 19.1042L 37.0704 20.1823L 28.6943 8.57185L 33.4214 7.07909L 40.3876 9.40117ZM 34.1678 21.0945L 33.2555 21.3433L 32.3433 21.0116C 32.675 20.5969 32.9238 20.1823 33.2555 19.7676C 33.5043 20.2652 33.836 20.6799 34.1678 21.0945ZM 29.2748 5.75219L 27.1186 6.41564L 25.7917 4.59114L 29.2748 5.75219ZM 23.1379 5.83512C 23.4696 6.24977 23.8013 6.74736 24.216 7.32788L 21.3963 8.24013L 23.1379 5.83512ZM 14.5959 13.0502L 13.269 14.7917L 11.1128 14.0453L 14.5959 13.0502ZM 9.70298 16.6991C 10.2006 16.865 10.7811 17.0309 11.4445 17.2797L 9.70298 19.6017L 9.70298 16.6991ZM 9.62005 23.9971L 14.0154 18.109L 15.3423 18.5236L 22.8062 21.0116L 23.2208 21.1774L 23.2208 24.5776L 19.9036 25.6557L 17.0839 26.568L 9.70298 28.973L 9.62005 23.9971ZM 22.5574 29.3877C 22.2256 28.973 21.9768 28.5583 21.6451 28.1437C 22.1427 27.9778 22.6403 27.812 23.1379 27.6461L 23.1379 28.5583L 22.5574 29.3877ZM 23.1379 35.1099L 23.1379 36.1051C 22.6403 35.9392 22.1427 35.7734 21.6451 35.6075C 21.9768 35.1929 22.2256 34.7782 22.5574 34.3635L 23.1379 35.1099ZM 9.53712 32.0415L 10.864 31.6268L 18.4108 29.2218L 18.8254 29.0559L 20.8158 31.7927L 18.7425 34.6123L 17.001 37.0174L 12.4397 43.2372L 9.53712 39.1736L 9.53712 32.0415ZM 9.37126 47.3838L 9.37126 43.7348L 10.6982 45.5593L 9.37126 47.3838ZM 11.4445 49.4571C 11.7763 49.0424 12.108 48.5448 12.5227 48.0472L 14.1813 50.4523L 11.4445 49.4571ZM 14.0984 45.8081L 14.9277 44.73L 19.6548 38.4272L 19.9036 38.0955L 23.1379 39.1736L 23.1379 42.6567L 23.1379 45.6422L 23.1379 53.3549L 18.4108 51.7792L 14.0984 45.8081ZM 20.9817 55.3452L 23.1379 56.0916L 23.1379 58.3308L 20.9817 55.3452ZM 23.2208 18.109L 15.8399 15.704L 18.8254 11.7233L 25.7917 9.56703L 26.621 10.6451L 31.2652 17.0309L 31.514 17.3626L 29.5236 20.0993L 26.2063 19.0212L 23.2208 18.109ZM 26.0405 22.0897C 26.5381 22.2556 27.0357 22.4214 27.5332 22.5873L 26.9527 23.3337L 26.1234 23.6654C 26.1234 23.1678 26.0405 22.5873 26.0405 22.0897ZM 26.1234 29.6364C 27.0357 28.3925 27.9479 27.1485 28.8602 25.9045C 30.3529 25.4069 31.8457 24.9923 33.2555 24.4947C 34.7483 24.9923 36.2411 25.4899 37.6509 25.9045C 38.5631 27.1485 39.4754 28.3925 40.3876 29.6364C 40.3876 31.2121 40.3876 32.7049 40.3876 34.1977C 39.4754 35.4417 38.5631 36.6856 37.6509 37.9296C 36.1581 38.4272 34.6654 38.8419 33.2555 39.3394C 31.7628 38.8419 30.27 38.3443 28.8602 37.9296C 27.9479 36.6856 27.0357 35.4417 26.1234 34.1977C 26.1234 32.622 26.1234 31.1292 26.1234 29.6364ZM 34.0848 42.7396C 33.7531 43.1543 33.5043 43.5689 33.1726 43.9836C 32.8409 43.5689 32.5921 43.1543 32.2603 42.7396L 33.1726 42.4908L 34.0848 42.7396ZM 26.1234 40.0858L 27.0357 40.4175L 27.6162 41.2469C 27.1186 41.4127 26.621 41.5786 26.1234 41.7445C 26.1234 41.1639 26.1234 40.5834 26.1234 40.0858ZM 25.9576 58.9113C 25.9576 58.3308 25.9576 57.7502 25.9576 57.0868L 28.6943 57.999L 25.9576 58.9113ZM 26.0405 54.35L 26.0405 52.9402L 26.1234 45.0617L 26.1234 44.6471L 29.3577 43.5689L 31.431 46.3886L 33.1726 48.7936L 37.7338 55.0964L 33.0067 56.5892L 26.0405 54.35ZM 37.1533 58.082L 39.3095 57.4185L 40.6364 59.243L 37.1533 58.082ZM 43.2902 57.9161C 42.9585 57.5014 42.6268 57.0038 42.2121 56.4233L 45.0318 55.5111L 43.2902 57.9161ZM 47.6027 52.1109L 40.6364 54.2671L 39.8071 53.189L 35.1629 46.8033L 34.9142 46.4715L 36.9045 43.7348L 40.2218 44.8129L 43.0414 45.7252L 50.4223 48.1302L 47.6027 52.1109ZM 51.8322 50.784L 53.1591 48.9595L 55.3153 49.7059L 51.8322 50.784ZM 56.7251 47.0521C 56.2275 46.8862 55.647 46.7203 54.9836 46.4715L 56.7251 44.1495L 56.7251 47.0521ZM 56.8081 39.7541L 52.4127 45.6422L 51.0858 45.2276L 43.622 42.7396L 43.2073 42.5738L 43.2073 39.1736L 46.5246 38.0955L 49.3442 37.1832L 56.7251 34.7782L 56.8081 39.7541ZM 56.891 31.7927L 55.5641 32.2073L 48.0173 34.6123L 47.6027 34.7782L 45.6123 31.9585L 47.6856 29.1389L 49.4272 26.7338L 53.9884 20.514L 56.891 24.5776L 56.891 31.7927ZM 56.9739 20.0993L 55.647 18.2748L 56.9739 16.4503L 56.9739 20.0993ZM 59.4619 28.0608L 61.1205 30.4658C 60.6229 30.6316 60.0424 30.7975 59.3789 31.0463L 59.4619 28.0608ZM 59.3789 36.271L 59.3789 34.0318L 61.5352 33.3684L 59.3789 36.271Z"></path> </defs> </svg> 